<svg xmlns="http://www.w3.org/2000/svg" version="1.0" preserveAspectRatio="xMidYMid meet" viewBox="105.72 103.15 816.13 830.85">

<g transform="translate(0.000000,1024.000000) scale(0.100000,-0.100000)" fill="#000000" stroke="none">
<path d="M4865 9197 c-57 -23 -92 -46 -129 -88 -59 -65 -80 -120 -81 -214 0 -68 4 -88 28 -138 16 -32 54 -85 84 -117 l55 -60 -275 0 -276 0 -28 -24 -28 -24 1 -130 c2 -160 23 -268 76 -389 63 -145 173 -275 287 -340 25 -15 66 -48 91 -73 l45 -47 215 -6 c118 -3 292 -3 385 0 l170 6 46 48 c25 27 49 49 53 49 19 0 137 93 188 149 138 148 198 312 213 577 8 135 -3 176 -51 194 -14 6 -158 10 -323 10 l-297 0 52 54 c61 63 97 128 113 206 28 134 -49 284 -178 346 -48 24 -157 30 -201 12 -29 -11 -41 -12 -70 -2 -44 16 -126 16 -165 1z m381 -174 c31 -20 61 -69 69 -115 11 -58 -21 -110 -139 -227 l-104 -103 -110 106 c-60 59 -117 122 -126 140 -33 70 -12 161 46 196 42 26 113 26 151 1 27 -18 29 -17 75 6 51 26 94 25 138 -4z m564 -636 c0 -36 -22 -181 -35 -231 -27 -101 -85 -206 -85 -151 0 19 -31 35 -68 35 -43 0 -76 -43 -92 -121 -12 -57 -20 -70 -81 -133 -37 -39 -69 -69 -72 -66 -2 3 -1 37 4 75 4 39 8 96 8 128 1 52 -2 62 -28 88 -31 31 -55 36 -94 18 -39 -18 -57 -60 -57 -136 0 -121 -34 -183 -101 -183 -79 0 -107 44 -118 182 -7 93 -10 103 -35 125 -36 31 -69 29 -107 -5 l-31 -28 1 -109 c1 -59 4 -120 8 -134 6 -26 5 -25 -38 10 -71 58 -107 112 -120 181 -14 72 -43 108 -86 108 -33 0 -73 -25 -73 -46 0 -30 -18 -12 -43 44 -31 69 -53 156 -62 237 -3 33 -8 75 -11 93 l-5 32 711 0 c569 0 710 -3 710 -13z"/>
<path d="M5094 8934 c-21 -22 -34 -30 -34 -20 0 21 -39 46 -71 46 -31 0 -79 -49 -79 -80 0 -10 12 -32 26 -49 33 -40 84 -43 111 -7 l18 24 25 -23 c42 -40 75 -42 110 -7 42 42 42 90 -1 126 -41 35 -65 33 -105 -10z"/>
<path d="M6418 8659 c-28 -51 -42 -66 -83 -86 -78 -38 -79 -39 -82 -50 -2 -6 15 -18 39 -28 65 -26 106 -61 135 -118 23 -46 27 -50 37 -33 57 94 65 103 130 137 36 19 66 37 66 41 0 4 -26 21 -57 37 -68 34 -83 49 -113 114 -12 26 -26 47 -30 47 -5 0 -23 -28 -42 -61z"/>
<path d="M3653 8648 c-5 -7 -17 -29 -26 -48 -23 -51 -53 -79 -114 -107 -29 -13 -53 -29 -53 -34 0 -5 24 -20 53 -35 68 -34 94 -59 123 -117 14 -26 29 -45 34 -42 6 4 19 24 30 45 27 53 64 85 133 117 31 15 57 29 57 32 0 4 -23 17 -51 30 -72 35 -94 54 -129 116 -33 57 -41 63 -57 43z"/>
<path d="M7468 8475 c-14 -13 -33 -42 -43 -64 -17 -38 -21 -40 -89 -56 -84 -18 -152 -52 -219 -107 -47 -39 -49 -40 -92 -29 -66 17 -119 14 -138 -7 -21 -23 -22 -88 -2 -135 15 -35 14 -37 -31 -124 -36 -69 -53 -92 -82 -108 -75 -41 -77 -111 -7 -195 19 -23 35 -47 35 -52 0 -6 -22 -35 -50 -64 -42 -44 -50 -59 -50 -91 0 -48 20 -78 70 -103 34 -17 46 -34 85 -114 l46 -95 -15 -46 c-23 -66 -20 -102 9 -130 30 -31 63 -31 136 -1 l56 23 29 -24 c62 -50 186 -96 261 -97 58 -1 48 11 103 -126 48 -119 83 -147 130 -100 26 26 25 58 -5 132 -14 34 -25 65 -25 70 0 4 17 8 38 8 88 0 221 48 301 107 l33 26 45 -23 c103 -52 173 -29 173 56 0 25 -7 60 -15 79 -14 35 -13 37 43 144 55 106 58 110 100 120 61 16 104 57 105 104 1 47 -28 79 -99 108 -30 13 -54 26 -54 30 0 5 14 30 30 56 62 98 59 161 -10 195 -23 12 -42 33 -58 65 -13 27 -35 64 -48 83 l-24 36 22 65 c19 58 19 68 7 95 -11 23 -21 30 -52 32 -21 2 -59 -1 -83 -6 -44 -10 -46 -9 -97 35 -69 59 -150 99 -230 114 -65 12 -66 13 -82 55 -31 82 -106 110 -157 59z m223 -241 c62 -18 161 -68 183 -93 13 -14 13 -25 1 -79 -7 -35 -15 -66 -18 -69 -4 -3 -28 5 -54 17 -78 37 -153 60 -212 66 -31 3 -84 10 -119 16 -53 9 -66 8 -87 -6 -28 -19 -35 -75 -11 -95 7 -6 82 -34 167 -62 85 -28 189 -68 231 -90 78 -39 123 -48 158 -29 30 16 32 -5 5 -56 -17 -33 -25 -63 -25 -99 0 -168 -71 -294 -200 -354 -43 -20 -71 -25 -130 -25 -67 -1 -82 3 -140 35 -60 33 -101 73 -163 163 -35 51 -115 23 -103 -36 8 -40 59 -111 106 -149 l39 -32 -24 -29 c-14 -16 -25 -37 -25 -47 0 -12 -24 -26 -89 -49 -109 -40 -130 -40 -165 -3 -26 27 -28 34 -22 75 6 39 2 54 -32 123 -81 161 -88 303 -27 486 35 101 80 172 170 263 94 95 188 147 306 169 86 17 201 12 280 -11z m289 -959 c12 -19 33 -43 46 -54 l25 -19 -32 -36 c-38 -44 -175 -136 -250 -170 -41 -18 -187 -56 -215 -56 -2 0 -39 111 -68 206 -6 21 -4 21 61 17 125 -9 249 30 353 111 25 19 48 35 52 35 3 1 16 -15 28 -34z"/>
<path d="M7163 7855 c-24 -17 -37 -52 -53 -143 -10 -54 -9 -67 5 -88 19 -29 64 -32 89 -5 15 17 50 119 63 184 11 55 -54 87 -104 52z"/>
<path d="M7503 7816 c-62 -20 -118 -69 -149 -131 -37 -76 -32 -165 12 -227 41 -59 111 -100 178 -106 66 -5 111 9 169 53 151 115 103 348 -84 408 -60 20 -70 20 -126 3z m113 -146 c89 -55 47 -190 -60 -190 -26 0 -41 8 -65 35 -37 43 -41 90 -10 129 38 49 84 57 135 26z"/>
<path d="M2450 8425 c-333 -67 -596 -329 -665 -660 -58 -284 33 -568 250 -774 237 -225 567 -289 875 -170 237 91 444 317 513 559 99 346 -43 720 -348 919 -187 123 -415 168 -625 126z m300 -176 c30 -6 96 -30 146 -54 261 -125 417 -410 375 -681 -24 -157 -75 -256 -194 -374 -132 -132 -280 -193 -472 -194 -190 -1 -330 57 -467 194 -95 95 -142 175 -174 300 -23 86 -23 236 -1 320 47 181 184 353 342 432 143 72 277 89 445 57z"/>
<path d="M2480 8072 c-30 -10 -75 -29 -98 -41 -53 -27 -132 -98 -132 -118 0 -8 46 -59 102 -113 57 -54 100 -101 98 -104 -3 -3 -63 13 -134 34 -70 22 -132 40 -136 40 -5 0 -17 -24 -27 -52 -27 -78 -24 -214 7 -293 26 -70 76 -143 127 -188 58 -52 58 -52 93 5 43 70 161 230 167 225 2 -3 -3 -33 -11 -68 -39 -166 -57 -261 -51 -267 4 -4 66 -7 138 -7 123 0 136 2 190 27 32 15 77 41 102 59 l44 32 -124 130 c-69 71 -125 136 -125 143 0 25 52 14 200 -41 l145 -53 12 46 c21 85 10 260 -17 277 -4 3 -61 -16 -126 -41 -114 -45 -176 -56 -196 -36 -9 9 61 75 199 186 l61 50 -24 32 c-33 42 -116 99 -184 125 -78 31 -226 36 -300 11z"/>
<path d="M5138 6833 c-9 -21 -25 -69 -37 -108 -26 -82 -63 -150 -88 -160 -10 -4 -69 -27 -132 -49 -63 -23 -116 -47 -118 -53 -2 -6 15 -18 39 -26 24 -8 79 -28 123 -43 114 -39 133 -62 180 -209 21 -66 41 -124 45 -128 14 -16 38 23 65 110 55 173 74 193 243 248 67 22 111 42 109 49 -2 6 -55 29 -118 51 -63 23 -123 46 -135 53 -34 18 -56 60 -94 182 -41 128 -58 145 -82 83z"/>
<path d="M4304 6730 c-26 -66 -74 -130 -98 -130 -19 0 -116 -49 -116 -58 0 -5 32 -22 71 -37 82 -33 113 -66 145 -152 24 -64 36 -74 51 -41 68 151 78 162 186 203 76 29 73 34 -36 80 -74 30 -88 45 -127 139 -14 32 -30 61 -36 63 -7 2 -24 -27 -40 -67z"/>
<path d="M1764 6540 c-11 -4 -33 -22 -47 -40 -82 -97 17 -250 135 -211 111 37 132 182 35 241 -33 21 -87 25 -123 10z"/>
<path d="M8404 6536 c-67 -30 -97 -105 -70 -170 27 -64 89 -97 151 -82 41 10 94 64 101 103 20 107 -85 193 -182 149z"/>
<path d="M5740 6385 c-28 -85 -57 -117 -127 -145 -32 -13 -64 -28 -71 -35 -17 -15 -4 -25 62 -50 66 -24 109 -68 136 -138 29 -73 46 -72 77 7 29 77 42 89 130 131 41 20 73 41 71 47 -2 6 -31 21 -64 33 -77 29 -106 59 -139 145 -15 38 -33 70 -40 70 -8 0 -23 -29 -35 -65z"/>
<path d="M2533 6386 c-24 -21 -28 -32 -28 -74 0 -58 28 -97 76 -107 56 -13 129 47 129 105 0 29 -26 77 -49 90 -36 19 -98 12 -128 -14z"/>
<path d="M7579 6381 c-23 -23 -29 -38 -29 -71 0 -23 5 -50 10 -61 13 -22 61 -49 90 -49 62 0 118 70 105 131 -17 76 -120 105 -176 50z"/>
<path d="M3332 6321 c-86 -22 -162 -118 -162 -205 0 -107 84 -196 190 -204 52 -4 66 -1 114 27 65 36 130 42 144 14 9 -18 42 -150 106 -428 33 -142 110 -472 196 -835 75 -317 111 -454 129 -496 27 -61 96 -131 161 -164 53 -27 181 -60 232 -60 17 0 6 -9 -37 -34 -203 -112 -206 -397 -5 -510 47 -27 65 -31 125 -31 162 1 286 123 289 285 1 72 -12 113 -58 178 -31 44 -110 102 -139 102 -10 0 -17 5 -17 10 0 11 1032 15 1043 4 3 -4 -16 -18 -43 -31 -53 -27 -107 -83 -137 -142 -13 -26 -18 -59 -18 -121 0 -77 3 -90 31 -140 57 -100 167 -160 270 -146 91 12 184 78 226 160 30 58 35 159 13 227 -21 63 -101 149 -158 170 -20 7 -37 17 -37 21 0 4 70 8 155 8 117 0 163 4 184 15 54 27 65 111 19 151 -19 18 -60 19 -872 24 l-851 5 -47 28 c-52 30 -89 74 -107 126 -6 19 -11 35 -11 37 0 2 438 5 973 6 l974 3 49 30 c80 50 77 43 264 728 108 398 130 486 130 522 0 38 -36 102 -73 129 l-28 21 -1313 3 -1312 2 -37 162 c-41 181 -57 219 -111 262 -36 30 -42 31 -144 34 -90 2 -114 7 -152 27 -54 28 -103 37 -148 26z m963 -793 c3 -35 15 -116 26 -182 11 -65 17 -121 14 -124 -3 -4 -66 -8 -140 -10 l-134 -4 -10 38 c-13 48 -81 335 -81 340 0 2 72 4 159 4 l159 0 7 -62z m539 -30 c4 -51 7 -136 9 -188 l2 -95 -137 -3 c-76 -1 -138 -1 -139 0 0 2 -13 87 -28 191 l-27 187 157 0 157 0 6 -92z m481 10 c-4 -46 -10 -130 -13 -188 l-7 -105 -112 -3 -111 -3 -6 73 c-3 40 -8 126 -11 191 l-6 117 136 0 136 0 -6 -82z m528 55 c-2 -16 -14 -100 -26 -188 l-23 -160 -138 -3 -139 -3 7 138 c4 76 9 162 12 191 l6 52 152 0 153 0 -4 -27z m547 21 c0 -5 -82 -308 -96 -356 -5 -16 -20 -18 -140 -18 l-134 0 0 28 c0 15 9 83 20 152 11 69 20 142 20 163 l0 37 165 0 c91 0 165 -3 165 -6z m-2020 -579 c0 -2 14 -88 30 -190 17 -102 30 -195 30 -206 0 -19 -6 -20 -112 -17 l-112 3 -43 175 c-23 96 -44 190 -48 208 l-6 32 131 0 c71 0 130 -2 130 -5z m494 -47 c9 -74 22 -346 18 -358 -2 -6 -50 -10 -116 -10 l-113 0 -27 198 c-14 108 -26 203 -26 210 0 9 33 12 129 12 l130 0 5 -52z m412 -53 c-3 -58 -9 -152 -12 -210 l-7 -105 -77 0 -77 0 -7 98 c-3 53 -9 148 -12 210 l-7 112 103 0 103 0 -7 -105z m489 73 c-7 -45 -44 -316 -47 -353 l-3 -30 -114 -3 c-63 -1 -118 1 -122 5 -4 4 -1 94 6 198 8 105 14 196 15 203 0 9 34 12 135 12 l136 0 -6 -32z m454 -40 c-30 -108 -89 -334 -89 -342 0 -3 -45 -6 -100 -6 -55 0 -100 4 -100 8 0 4 13 96 30 203 16 106 30 197 30 202 0 4 56 7 124 7 l125 0 -20 -72z"/>
<path d="M8357 6025 c-63 -18 -110 -50 -148 -104 -27 -37 -32 -53 -33 -105 -1 -59 -3 -63 -43 -100 -46 -41 -65 -89 -61 -153 1 -22 -3 -38 -10 -41 -57 -19 -109 -113 -99 -182 5 -36 3 -41 -28 -59 -48 -28 -78 -92 -73 -153 4 -39 2 -49 -13 -53 -30 -10 -88 -82 -95 -120 -3 -20 -4 -54 -1 -75 4 -34 1 -42 -30 -72 -51 -48 -73 -101 -72 -178 0 -36 6 -81 13 -101 19 -55 72 -113 129 -145 l52 -29 420 -3 c299 -3 436 0 475 8 267 58 459 345 477 712 9 173 -20 315 -90 454 -106 209 -314 389 -545 474 -99 36 -163 43 -225 25z m158 -170 c149 -56 289 -159 380 -280 67 -90 98 -155 126 -266 28 -109 23 -313 -11 -429 -21 -75 -73 -183 -110 -230 -19 -25 -19 -25 -1 25 10 28 21 77 25 110 4 33 15 103 26 155 35 170 20 332 -41 452 -34 66 -118 167 -189 225 -77 64 -220 136 -305 154 -53 11 -85 29 -85 50 0 3 9 18 21 33 27 34 76 35 164 1z m-23 -248 c140 -65 253 -171 318 -298 34 -66 60 -161 60 -219 l0 -42 -45 88 c-24 49 -66 113 -92 143 -109 124 -274 228 -415 261 -70 16 -73 18 -76 47 -7 74 113 84 250 20z m-153 -209 c132 -50 273 -163 350 -281 65 -101 94 -194 95 -308 1 -96 1 -97 -47 -192 -45 -89 -50 -95 -85 -100 -20 -4 -37 -5 -39 -3 -2 2 8 27 23 56 40 80 51 176 31 275 -23 113 -65 191 -151 282 -102 109 -200 162 -358 197 -24 6 -28 11 -28 42 0 30 5 37 33 49 39 18 98 12 176 -17z m-77 -241 c124 -60 213 -154 258 -272 31 -83 31 -190 0 -263 -23 -53 -78 -112 -105 -112 -18 0 -18 -1 1 46 23 54 23 175 0 241 -25 73 -95 165 -167 218 -54 39 -82 51 -199 83 -34 10 -39 53 -9 83 33 33 123 23 221 -24z m-149 -216 c113 -55 177 -147 184 -266 4 -59 1 -77 -19 -115 -20 -40 -27 -45 -60 -48 l-37 -3 11 38 c14 50 5 131 -20 180 -41 79 -111 123 -234 148 -22 4 -28 11 -28 32 0 14 8 35 18 46 14 16 26 19 79 14 34 -2 81 -14 106 -26z m-126 -221 c43 -26 65 -62 65 -105 0 -65 -45 -108 -114 -108 -45 0 -82 23 -108 66 -24 38 -25 68 -5 107 30 58 104 76 162 40z"/>
<path d="M1675 5959 c-280 -69 -518 -311 -596 -604 -29 -111 -29 -288 0 -400 62 -236 219 -433 426 -538 97 -49 153 -66 274 -84 174 -25 347 8 511 100 144 81 297 262 346 409 15 45 15 51 0 73 -20 30 -47 32 -143 8 -91 -22 -268 -22 -350 0 -94 25 -180 73 -249 138 -107 103 -149 211 -142 364 3 83 8 101 42 169 45 91 116 170 211 234 75 51 88 74 58 110 -37 45 -245 56 -388 21z m34 -186 c-40 -45 -79 -110 -107 -182 -23 -58 -26 -81 -26 -191 -1 -139 9 -181 72 -305 51 -99 171 -217 277 -272 136 -70 268 -98 392 -83 37 5 70 7 72 4 10 -9 -108 -113 -169 -148 -226 -133 -498 -123 -709 25 -263 185 -354 538 -212 824 76 151 192 263 336 325 90 38 106 38 74 3z"/>
<path d="M8573 4033 c-27 -79 -68 -164 -86 -181 -12 -12 -52 -32 -87 -46 -89 -33 -120 -48 -120 -57 0 -4 43 -24 95 -45 52 -20 104 -47 115 -59 12 -12 36 -60 54 -106 19 -51 38 -84 47 -84 9 0 25 30 42 80 15 44 40 92 54 107 15 16 63 42 107 59 45 17 89 36 99 41 18 9 18 10 0 22 -10 7 -48 23 -85 35 -120 40 -130 51 -183 204 -17 48 -41 62 -52 30z"/>
<path d="M1649 3983 c-49 -118 -59 -129 -159 -168 -30 -12 -56 -28 -58 -36 -2 -9 26 -28 80 -54 l83 -40 38 -78 c21 -42 42 -75 47 -72 4 2 24 38 43 79 l35 74 86 41 c47 22 86 45 86 51 0 5 -38 27 -84 50 -89 42 -92 46 -140 163 -8 20 -20 37 -26 37 -6 0 -20 -21 -31 -47z"/>
<path d="M7652 3950 c-34 -14 -36 -33 -13 -100 22 -62 26 -105 15 -159 -6 -29 -9 -31 -54 -31 -55 0 -120 -21 -157 -50 -39 -31 -82 -92 -89 -127 -7 -35 -4 -34 -119 -48 -163 -21 -324 -134 -402 -281 -94 -178 -53 -371 101 -480 28 -20 29 -25 86 -367 33 -191 62 -356 65 -367 3 -11 18 -29 32 -40 24 -18 40 -20 208 -20 163 0 185 2 206 19 l23 18 -22 304 c-12 167 -23 324 -25 348 l-2 43 90 1 89 1 -2 -50 c-3 -43 -20 -303 -38 -556 -5 -79 -4 -88 15 -107 20 -20 32 -21 201 -21 l180 0 30 28 c32 29 32 28 133 624 l22 127 41 30 c89 64 134 156 134 274 0 40 -7 96 -15 123 -20 69 -104 185 -168 233 -96 73 -225 121 -327 121 l-55 0 -19 53 c-10 28 -33 66 -50 82 l-32 30 18 45 c33 87 14 235 -37 286 -26 26 -29 27 -63 14z m-52 -415 c16 -20 7 -51 -29 -100 -38 -52 -78 -76 -91 -55 -6 8 -10 30 -10 49 0 27 9 43 44 77 46 47 66 53 86 29z m-193 -278 c53 -73 157 -110 243 -87 52 14 111 54 137 92 22 33 62 37 157 12 112 -28 217 -108 263 -198 21 -42 24 -60 21 -117 -4 -76 -21 -108 -79 -147 -28 -20 -44 -23 -92 -20 -53 4 -62 8 -105 51 -75 73 -123 75 -195 6 -49 -48 -72 -59 -147 -70 -77 -11 -121 3 -186 62 -48 43 -59 49 -99 49 -38 0 -49 -5 -77 -36 -43 -47 -77 -64 -128 -64 -124 0 -196 116 -156 253 33 112 155 208 306 241 99 21 103 21 137 -27z m-68 -877 c12 -162 21 -305 21 -317 0 -21 -5 -23 -58 -23 l-57 0 -43 263 c-24 144 -46 273 -49 287 -4 23 0 27 39 37 24 6 59 23 78 36 19 13 38 21 41 18 4 -3 16 -139 28 -301z m566 290 c10 -16 82 -50 105 -50 25 0 26 -30 5 -133 -17 -85 -75 -421 -75 -436 0 -7 -23 -11 -55 -11 l-55 0 0 33 c0 42 40 556 46 585 5 23 18 29 29 12z"/>
<path d="M2564 3732 c-99 -72 -207 -226 -234 -333 l-12 -46 -57 -6 c-76 -6 -148 -44 -214 -112 -67 -68 -105 -145 -116 -230 -7 -60 -11 -68 -58 -114 -27 -28 -65 -78 -84 -113 -31 -59 -34 -69 -34 -158 0 -107 16 -153 80 -225 19 -22 53 -76 74 -120 70 -141 204 -267 363 -339 365 -167 833 -44 1042 274 24 36 49 81 56 100 8 19 28 47 46 62 17 15 46 56 65 90 32 59 34 69 34 158 0 87 -3 101 -32 161 -20 41 -53 85 -87 117 -51 49 -54 53 -58 110 -12 169 -173 331 -344 345 l-47 4 -26 75 c-27 76 -47 110 -113 190 -49 60 -153 138 -182 138 -13 0 -41 -13 -62 -28z m115 -218 c22 -26 52 -70 66 -99 23 -46 26 -62 23 -143 -3 -77 0 -93 16 -111 26 -28 62 -26 108 5 79 55 195 11 252 -96 25 -46 30 -67 30 -128 1 -63 4 -76 23 -90 11 -10 37 -29 57 -45 54 -42 85 -89 95 -144 13 -66 0 -110 -44 -153 -30 -29 -43 -34 -93 -38 -74 -5 -110 12 -179 85 -49 53 -54 56 -90 50 -22 -4 -45 -16 -56 -29 -82 -105 -149 -141 -262 -142 -102 -1 -161 24 -236 100 -73 73 -99 74 -171 1 -34 -33 -68 -57 -94 -65 -55 -16 -71 -15 -120 7 -86 39 -115 152 -62 243 25 41 40 57 121 125 23 20 27 31 27 76 0 111 51 206 131 247 48 25 80 25 110 1 22 -18 23 -22 11 -53 -6 -19 -12 -46 -12 -61 0 -52 60 -84 110 -57 25 13 40 63 31 97 -6 22 -4 33 12 50 18 21 19 26 7 101 -11 65 -11 88 0 126 18 66 106 186 136 186 7 0 31 -21 53 -46z m328 -1159 c25 -19 70 -42 99 -52 30 -9 54 -20 54 -24 0 -22 -135 -125 -215 -164 -119 -59 -196 -78 -320 -78 -189 1 -341 61 -477 192 -27 25 -48 48 -48 52 0 3 20 12 45 19 25 7 71 28 101 46 l56 34 43 -30 c101 -69 227 -98 353 -80 78 11 179 52 227 94 17 14 31 25 33 26 2 0 24 -16 49 -35z"/>
<path d="M2118 2743 c-37 -44 -31 -96 13 -119 75 -38 141 43 88 110 -25 31 -77 36 -101 9z"/>
<path d="M5045 2773 c-155 -19 -336 -94 -435 -178 -159 -136 -260 -317 -260 -463 0 -39 -6 -49 -54 -100 -75 -80 -98 -130 -104 -225 -3 -58 0 -89 13 -125 29 -77 85 -144 148 -175 l55 -28 62 -252 c35 -139 70 -265 79 -280 24 -42 65 -49 277 -45 175 3 194 5 214 23 19 17 21 27 16 65 -8 57 -56 478 -56 490 0 6 8 10 18 10 19 0 83 36 94 53 4 6 20 -2 43 -21 19 -18 42 -32 50 -32 20 0 19 -26 -9 -300 -24 -231 -23 -249 13 -277 11 -9 73 -12 209 -13 215 0 251 7 270 56 6 16 38 142 72 280 61 248 62 252 89 257 38 8 110 64 143 112 43 64 64 154 50 225 -16 85 -56 163 -111 212 -47 42 -48 45 -54 114 -21 250 -238 495 -518 583 -101 32 -225 45 -314 34z m225 -180 c137 -37 297 -148 368 -253 53 -79 72 -141 79 -252 l6 -87 43 -31 c123 -88 150 -231 55 -296 -69 -47 -143 -27 -191 51 -25 41 -71 58 -112 41 -14 -6 -41 -31 -60 -56 -40 -53 -69 -70 -121 -70 -49 0 -86 22 -117 68 -38 54 -48 62 -86 62 -35 0 -74 -28 -100 -71 -36 -60 -133 -77 -197 -34 -20 14 -37 29 -37 33 0 4 -13 22 -29 40 -49 53 -121 40 -157 -29 -34 -66 -123 -88 -184 -46 -55 37 -74 71 -74 130 0 67 31 123 95 171 49 36 49 37 49 94 0 70 21 154 57 230 41 86 168 208 263 254 157 75 302 92 450 51z m-484 -1101 l30 -13 22 -182 c12 -100 22 -194 22 -209 l0 -28 -79 0 -80 0 -15 53 c-21 72 -86 345 -86 360 0 7 14 18 30 26 17 7 38 23 48 36 l17 23 31 -27 c16 -15 44 -33 60 -39z m813 16 l33 -36 -32 -129 c-17 -70 -40 -163 -52 -205 l-20 -78 -79 0 c-93 0 -86 -20 -64 193 25 240 21 223 63 235 20 6 53 25 72 41 19 16 37 26 40 23 3 -4 20 -23 39 -44z"/>
<path d="M5222 2527 c-37 -21 -55 -55 -48 -90 14 -71 79 -98 137 -56 24 17 29 27 29 62 -1 48 -15 72 -54 87 -34 12 -36 12 -64 -3z"/>
<path d="M4936 2508 c-40 -35 -43 -78 -11 -116 35 -42 83 -44 120 -5 72 79 -29 191 -109 121z"/>
<path d="M4724 2356 c-80 -35 -51 -159 38 -159 42 0 92 54 83 90 -8 35 -35 73 -50 73 -7 0 -19 2 -27 5 -7 2 -27 -2 -44 -9z"/>
<path d="M5453 2354 c-42 -21 -60 -64 -43 -104 27 -65 92 -79 141 -31 36 36 38 80 7 114 -30 33 -66 40 -105 21z"/>
<path d="M5015 2238 c-32 -17 -45 -39 -45 -78 0 -46 33 -80 79 -80 46 0 68 15 81 56 26 76 -46 140 -115 102z"/>
<path d="M5255 2234 c-37 -19 -45 -31 -45 -70 0 -46 34 -84 75 -84 47 0 64 8 81 42 20 38 10 82 -23 108 -31 24 -48 25 -88 4z"/>
<path d="M4605 2075 c-53 -52 -16 -145 57 -145 37 1 59 14 76 47 31 58 -7 123 -73 123 -25 0 -44 -8 -60 -25z"/>
<path d="M5505 2075 c-34 -33 -34 -93 -1 -124 58 -54 146 -10 146 74 0 38 -41 75 -85 75 -25 0 -44 -8 -60 -25z"/>
<path d="M6127 2566 c-34 -32 -44 -84 -23 -124 20 -39 44 -52 96 -52 66 0 112 61 96 126 -18 72 -115 100 -169 50z"/>
<path d="M3977 2529 c-23 -13 -47 -62 -47 -94 0 -79 75 -119 150 -80 89 46 54 185 -47 185 -21 0 -46 -5 -56 -11z"/>
<path d="M6511 1912 c-35 -68 -38 -72 -119 -112 -34 -17 -62 -36 -62 -43 0 -7 17 -19 38 -26 69 -24 107 -56 141 -120 18 -34 37 -59 42 -55 5 3 20 26 33 52 31 60 58 84 129 116 37 16 56 30 51 37 -3 6 -30 22 -59 34 -58 26 -95 65 -125 131 -11 24 -25 44 -30 44 -5 0 -23 -26 -39 -58z"/>
<path d="M3632 1848 c-5 -7 -19 -32 -31 -56 -22 -43 -75 -89 -131 -112 -16 -7 -30 -16 -30 -21 0 -5 26 -22 59 -38 62 -32 99 -69 120 -120 16 -38 33 -40 51 -3 30 59 64 94 121 122 32 17 59 32 59 34 0 2 -21 16 -47 31 -70 40 -92 64 -119 123 -23 53 -34 61 -52 40z"/>
</g>
</svg>