<svg xmlns="http://www.w3.org/2000/svg" version="1.0" preserveAspectRatio="xMidYMid meet" viewBox="36 211.43 728.9 376.88">

<g transform="translate(0.000000,800.000000) scale(0.100000,-0.100000)" fill="#d9251c" stroke="none">
<path d="M3580 5884 c-248 -20 -341 -29 -500 -50 -1464 -192 -2555 -842 -2706 -1612 -8 -41 -14 -125 -14 -187 0 -192 33 -313 147 -538 147 -289 361 -506 716 -722 575 -351 1361 -571 2302 -647 195 -15 816 -15 1015 1 1434 113 2563 596 2963 1269 110 186 138 292 145 543 5 211 -8 304 -61 444 -261 694 -1297 1266 -2620 1445 -346 47 -430 52 -892 55 -247 1 -470 1 -495 -1z m810 -134 c13 -7 21 -7 25 0 11 18 26 0 16 -18 -6 -11 -23 -17 -50 -18 -42 0 -52 11 -29 34 15 15 15 15 38 2z m-762 -51 c83 -29 106 -203 35 -259 -28 -22 -73 -26 -105 -9 -26 14 -58 85 -58 131 0 53 28 116 59 133 32 17 31 17 69 4z m250 -6 c-2 -14 -15 -19 -56 -21 l-52 -3 0 -40 0 -41 47 3 c38 3 49 0 51 -13 3 -14 -7 -19 -49 -24 l-52 -7 7 -59 c5 -53 4 -59 -12 -56 -15 3 -17 19 -20 141 l-3 137 71 0 c63 0 71 -2 68 -17z m200 0 c-3 -15 -16 -19 -66 -21 l-62 -3 0 -34 0 -34 57 -3 c45 -2 59 -7 61 -20 3 -14 -6 -17 -55 -20 l-58 -3 -3 -42 -3 -43 65 0 c59 0 66 -2 66 -20 0 -18 -7 -20 -80 -20 l-80 0 0 140 0 140 81 0 c71 0 80 -2 77 -17z m202 -3 c0 -16 -7 -20 -34 -20 l-34 0 -7 -120 c-6 -98 -10 -120 -23 -120 -13 0 -14 16 -8 120 l7 120 -36 0 c-28 0 -35 4 -35 20 0 18 7 20 85 20 78 0 85 -2 85 -20z m126 -17 c4 -16 20 -78 35 -140 34 -132 33 -125 12 -121 -9 2 -21 20 -27 43 -11 39 -13 40 -55 40 -42 0 -45 -2 -56 -35 -11 -32 -34 -48 -36 -25 0 6 19 67 43 138 33 98 47 127 60 127 11 0 20 -10 24 -27z m-962 -14 c14 -17 26 -34 26 -39 0 -20 -27 -14 -51 11 -28 30 -57 30 -81 2 -13 -17 -17 -103 -5 -145 15 -57 87 -62 105 -8 6 16 18 30 26 30 38 0 2 -81 -44 -100 -45 -19 -87 2 -111 54 -33 73 -18 188 28 215 36 21 80 13 107 -20z m1207 4 c9 -8 19 -25 21 -38 6 -29 -15 -80 -36 -88 -13 -5 -12 -13 9 -62 29 -65 30 -75 10 -75 -9 0 -26 24 -41 57 -26 59 -38 73 -65 73 -13 0 -18 -14 -23 -60 -5 -44 -11 -60 -22 -60 -16 0 -15 60 2 228 l6 54 61 -7 c34 -4 69 -14 78 -22z m94 -125 c-4 -73 -9 -136 -12 -140 -2 -5 -11 -8 -20 -8 -12 0 -14 8 -9 43 3 23 8 80 11 127 7 98 10 110 26 110 9 0 10 -34 4 -132z m-1611 101 c21 -17 26 -29 26 -65 0 -32 -5 -47 -19 -55 -17 -11 -16 -15 20 -63 22 -28 37 -55 36 -61 -7 -21 -29 -8 -65 40 -27 36 -46 51 -66 53 l-29 4 7 -61 c6 -50 4 -61 -7 -61 -8 0 -17 6 -20 13 -10 26 -30 235 -24 250 4 10 22 17 49 20 24 2 48 4 54 5 6 1 23 -7 38 -19z m1809 5 c9 -3 17 -12 17 -21 0 -13 -10 -15 -60 -10 -33 3 -60 2 -60 -3 0 -4 -3 -21 -6 -38 -6 -30 -6 -30 50 -37 46 -6 56 -11 56 -27 0 -17 -5 -18 -60 -12 l-60 7 0 -37 c0 -20 -1 -39 -2 -43 -2 -5 25 -12 60 -16 50 -7 62 -12 60 -25 -2 -8 -6 -15 -11 -15 -4 0 -39 4 -77 7 -81 8 -76 -7 -55 161 8 66 15 121 15 123 0 4 109 -8 133 -14z m-2041 -35 c23 -13 55 -81 58 -124 4 -63 -1 -84 -26 -114 -33 -40 -79 -42 -123 -5 -57 47 -68 179 -21 229 26 27 76 33 112 14z m2295 -10 c39 -12 56 -52 42 -102 -13 -49 -30 -60 -89 -55 l-50 3 -11 -52 c-7 -34 -16 -53 -25 -53 -8 0 -14 4 -14 8 0 13 40 235 46 254 5 18 32 17 101 -3z m-2478 -40 c-8 -5 -22 -9 -31 -9 -9 0 -19 -3 -21 -7 -4 -8 26 -174 38 -213 5 -15 2 -20 -13 -20 -17 0 -22 11 -32 68 -6 37 -16 89 -22 115 -10 49 -10 49 -44 42 -29 -5 -34 -3 -34 13 0 15 14 21 78 33 66 13 78 13 86 1 5 -9 3 -17 -5 -23z m2641 9 c0 -2 7 -57 15 -123 18 -147 19 -165 1 -165 -14 0 -26 29 -26 66 0 24 -17 34 -59 34 -21 0 -31 -8 -44 -35 -17 -35 -31 -43 -42 -26 -3 6 23 64 57 130 44 84 68 121 81 121 9 0 17 -1 17 -2z m175 -36 c41 -12 61 -23 63 -35 3 -15 -2 -17 -35 -11 l-39 6 -23 -111 c-13 -61 -28 -114 -33 -117 -24 -15 -25 18 -2 111 13 55 24 105 24 112 0 6 -13 16 -30 22 -29 10 -37 21 -23 34 9 10 31 7 98 -11z m-2999 -79 c29 -49 61 -104 73 -124 19 -32 19 -37 6 -43 -10 -3 -23 7 -41 33 -25 38 -26 38 -64 29 -37 -10 -39 -13 -42 -51 -3 -37 -6 -42 -36 -51 -31 -9 -36 -7 -76 37 -42 46 -58 53 -89 41 -14 -5 -14 -10 -1 -46 18 -51 18 -78 1 -78 -16 0 -91 250 -79 261 4 4 32 14 62 23 52 16 56 15 80 -2 35 -27 47 -74 27 -106 -15 -23 -14 -25 27 -70 23 -26 45 -43 49 -40 4 4 7 40 7 79 0 40 3 100 6 134 10 86 27 81 90 -26z m3124 37 c0 -6 -14 -67 -31 -135 -21 -84 -36 -125 -45 -125 -8 0 -14 4 -14 9 0 10 47 213 56 244 6 18 34 24 34 7z m163 -48 c20 -18 24 -86 5 -80 -7 3 -15 13 -17 24 -8 47 -61 61 -82 23 -10 -19 -5 -27 40 -68 59 -55 65 -83 25 -130 -34 -41 -75 -42 -115 -2 -32 33 -41 91 -14 91 9 0 15 -9 15 -22 0 -53 82 -82 99 -35 12 30 6 41 -40 71 -44 29 -57 63 -39 105 20 49 80 60 123 23z m-3705 -32 c43 -26 71 -90 72 -158 0 -43 -5 -57 -25 -77 -73 -74 -185 17 -185 150 0 38 5 52 29 76 35 34 64 37 109 9z m3880 -21 c64 -21 68 -25 53 -47 -6 -10 -18 -9 -61 8 -29 11 -53 19 -54 18 -8 -13 -26 -61 -26 -67 0 -5 21 -14 46 -21 43 -12 65 -33 50 -47 -5 -5 -58 7 -100 23 -8 3 -17 -11 -25 -37 -7 -22 -11 -42 -9 -44 2 -1 27 -10 55 -19 57 -19 66 -26 54 -44 -5 -9 -24 -6 -76 11 -38 13 -70 28 -72 34 -6 18 79 253 91 253 7 0 40 -9 74 -21z m-4098 -57 c15 -12 24 -31 25 -53 1 -23 12 -45 29 -62 22 -23 27 -35 24 -70 -3 -39 -6 -44 -48 -64 -25 -12 -52 -22 -61 -23 -12 0 -30 35 -64 125 -27 69 -46 127 -43 130 8 8 82 34 99 34 9 1 27 -7 39 -17z m4295 -20 c42 -23 50 -32 53 -59 4 -39 -22 -81 -54 -89 -23 -6 -24 -8 -17 -76 6 -65 5 -70 -13 -66 -15 2 -20 13 -22 53 -4 75 -9 90 -36 103 -23 10 -25 8 -46 -44 -12 -30 -29 -54 -36 -54 -21 0 -19 8 37 139 36 86 56 121 67 121 10 0 40 -13 67 -28z m-4449 -158 c75 -82 94 -108 83 -114 -10 -7 -24 0 -46 22 l-33 32 -36 -17 c-34 -17 -35 -18 -29 -61 5 -33 3 -44 -8 -49 -16 -6 -17 -1 -48 190 -11 70 -8 103 9 103 5 0 54 -48 108 -106z m4598 88 c8 -13 -113 -254 -124 -247 -16 10 -13 18 44 140 50 106 67 128 80 107z m189 -108 c-7 -19 -16 -18 -73 11 l-50 25 -17 -35 c-9 -19 -15 -37 -12 -39 2 -2 25 -14 51 -27 37 -19 45 -27 38 -39 -8 -12 -15 -11 -55 8 -25 12 -49 22 -53 22 -8 0 -45 -70 -40 -75 2 -1 27 -14 56 -29 51 -26 62 -39 43 -51 -11 -6 -141 55 -141 67 0 5 27 62 60 128 l60 119 69 -36 c47 -24 68 -40 64 -49z m-5042 -76 c28 -57 53 -105 55 -107 3 -3 25 5 50 17 39 19 45 20 51 7 3 -9 4 -17 2 -19 -9 -8 -111 -57 -113 -54 -18 23 -124 243 -120 249 13 21 27 3 75 -93z m5182 -142 c223 -189 383 -428 443 -661 23 -91 25 -113 21 -245 -4 -130 -8 -156 -37 -245 -64 -197 -161 -349 -334 -521 -150 -150 -349 -290 -579 -409 -66 -34 -79 -38 -87 -25 -18 28 -10 37 79 85 347 188 600 479 699 806 22 71 41 189 45 279 l2 55 82 3 83 3 -6 47 c-36 321 -158 547 -421 782 -65 57 -92 100 -64 100 6 0 39 -24 74 -54z m-5265 -11 c12 -25 22 -50 22 -56 0 -6 -24 -39 -54 -72 -163 -187 -254 -395 -278 -634 l-12 -113 -83 0 -83 0 0 -27 c1 -100 46 -275 98 -378 70 -139 208 -308 351 -428 103 -86 303 -221 433 -291 78 -42 87 -50 78 -67 -6 -10 -16 -19 -22 -19 -18 0 -224 117 -318 181 -394 267 -632 600 -668 934 -14 129 -4 235 34 362 59 197 152 344 335 526 70 70 131 127 136 127 5 0 19 -20 31 -45z m3391 -560 l134 -275 104 0 c56 0 103 -4 103 -8 0 -4 -9 -36 -21 -70 l-21 -61 -47 -3 -48 -3 88 -184 c49 -101 89 -187 89 -191 0 -8 -109 -50 -129 -50 -6 0 -56 93 -111 206 l-100 206 -38 -7 c-55 -10 -195 -78 -270 -131 -80 -58 -175 -150 -229 -224 -38 -53 -44 -56 -109 -72 -38 -9 -71 -15 -73 -12 -2 2 33 84 79 181 115 245 374 801 417 896 20 42 39 77 42 77 4 0 67 -124 140 -275z m-2882 -4 c47 -113 107 -260 135 -326 27 -66 54 -132 60 -147 5 -16 13 -28 18 -28 4 0 62 134 130 298 174 422 160 394 209 416 22 11 43 17 45 15 2 -2 40 -170 85 -374 45 -203 92 -417 106 -475 13 -58 27 -123 31 -146 l6 -41 -58 -11 c-31 -7 -65 -12 -75 -12 -19 0 -24 20 -89 325 -18 83 -42 193 -54 245 l-23 95 -17 -40 c-17 -40 -58 -139 -161 -390 -30 -71 -60 -146 -69 -166 -19 -46 -84 -98 -97 -78 -4 8 -29 66 -55 129 -26 63 -85 206 -131 317 -46 112 -83 207 -83 213 0 5 -3 10 -7 10 -5 0 -23 -71 -42 -158 -19 -86 -49 -224 -67 -307 -19 -82 -34 -158 -34 -167 0 -9 -5 -20 -10 -23 -12 -7 -150 15 -150 24 0 3 18 89 40 191 22 102 61 280 85 395 89 413 82 391 128 425 37 27 42 28 51 13 5 -9 47 -109 93 -222z m3743 69 c34 -85 73 -180 86 -210 13 -30 51 -122 84 -205 34 -82 65 -154 70 -158 4 -5 13 6 19 25 6 18 71 176 144 352 l132 319 42 20 c24 12 45 19 47 16 3 -3 26 -99 51 -214 25 -116 54 -248 65 -295 54 -231 110 -495 110 -515 0 -11 -88 -35 -130 -35 -19 0 -23 15 -95 350 -20 91 -43 199 -52 240 l-16 75 -28 -60 c-14 -33 -73 -174 -130 -313 -93 -227 -108 -257 -142 -284 -21 -17 -40 -28 -43 -26 -2 3 -23 50 -45 104 -135 326 -162 392 -174 424 -38 98 -63 151 -68 143 -3 -4 -12 -42 -21 -83 -9 -41 -34 -158 -56 -260 -23 -102 -46 -210 -52 -240 -6 -30 -14 -59 -18 -64 -5 -4 -40 -2 -80 5 -70 12 -72 13 -66 38 3 14 19 89 36 166 17 77 53 246 81 375 27 129 54 251 59 270 5 19 14 61 20 92 10 50 17 61 53 88 22 16 44 27 47 23 4 -5 35 -78 70 -163z m-1683 139 l64 -11 -35 -62 -34 -61 -89 3 c-161 7 -308 -48 -333 -123 -22 -67 -3 -79 189 -115 186 -35 261 -73 303 -153 29 -56 31 -161 3 -236 -56 -154 -256 -271 -489 -288 -93 -6 -256 13 -256 31 0 6 14 35 30 63 l30 52 93 -6 c116 -7 212 8 294 48 166 80 217 260 92 324 -14 8 -96 27 -182 44 -173 33 -223 57 -251 116 -37 77 -4 202 68 262 121 99 320 144 503 112z m-847 -519 l0 -510 -75 0 -75 0 0 510 0 510 75 0 75 0 0 -510z m-997 -1127 c4 -7 -26 -98 -75 -225 -9 -25 -48 -41 -48 -20 0 6 53 158 79 225 10 25 34 36 44 20z m144 -40 c74 -22 93 -32 93 -47 0 -15 -5 -17 -27 -11 -63 17 -63 17 -97 -95 -27 -86 -36 -105 -52 -105 -23 0 -22 10 12 120 14 44 27 87 30 96 3 11 -7 19 -36 28 -23 7 -40 18 -40 26 0 21 13 20 117 -12z m3660 -78 c48 -58 90 -110 91 -115 8 -23 -44 -8 -67 20 l-26 31 -52 -16 -53 -16 0 -44 c0 -25 -2 -45 -4 -45 -2 0 -12 -3 -22 -7 -16 -6 -17 3 -10 137 4 79 9 147 12 152 16 25 49 0 131 -97z m-203 60 c6 -16 -28 -35 -60 -35 -20 0 -18 -24 16 -130 30 -96 32 -120 7 -120 -8 0 -26 42 -48 113 -26 81 -39 111 -50 109 -58 -14 -79 -14 -79 1 0 12 25 24 88 42 48 15 92 28 97 30 19 6 23 5 29 -10z m-3305 -24 c11 -7 9 -24 -12 -102 -14 -52 -30 -109 -35 -128 -9 -38 -29 -52 -38 -27 -7 17 55 266 65 266 3 0 12 -4 20 -9z m198 -49 c9 -5 4 -41 -20 -140 -24 -105 -34 -132 -46 -129 -20 4 -18 41 10 156 32 135 30 130 56 113z m2908 -107 c47 -63 85 -117 85 -120 0 -3 -11 -5 -24 -5 -17 0 -31 10 -43 30 -19 32 -36 36 -94 20 -34 -9 -37 -14 -44 -55 -5 -36 -10 -45 -26 -45 -17 0 -20 5 -15 28 3 15 10 77 17 137 6 61 13 113 16 118 2 4 13 7 24 7 13 0 46 -37 104 -115z m-2756 -26 c24 -60 44 -109 46 -109 2 0 13 43 26 95 14 61 26 95 35 95 7 0 15 -3 17 -7 5 -8 -34 -208 -48 -253 -15 -48 -42 -16 -90 108 -21 56 -42 99 -45 97 -4 -2 -15 -43 -25 -90 -18 -85 -28 -106 -46 -88 -8 8 32 241 46 263 3 4 13 6 23 3 12 -3 32 -40 61 -114z m2505 99 c2 -7 14 -60 26 -118 12 -58 23 -112 26 -121 6 -20 -26 -35 -37 -17 -4 6 -15 51 -23 98 -9 47 -21 101 -26 120 -7 25 -6 36 3 42 17 11 27 10 31 -4z m-67 -21 c-3 -8 -15 -63 -26 -123 -26 -130 -36 -157 -57 -152 -18 3 -165 238 -158 250 15 23 39 -2 91 -92 32 -55 61 -100 64 -100 3 0 14 46 23 103 22 129 21 127 47 127 13 0 19 -5 16 -13z m-2142 -31 c77 -22 105 -106 66 -193 -29 -64 -57 -77 -144 -69 -39 4 -75 10 -80 15 -8 8 16 207 29 254 4 14 13 16 47 10 23 -3 60 -11 82 -17z m1778 -21 c8 -18 2 -21 -53 -29 -103 -16 -101 -15 -98 -49 l3 -32 78 3 c71 2 78 1 75 -15 -2 -14 -18 -20 -76 -27 -68 -8 -73 -11 -68 -30 3 -12 6 -32 6 -45 0 -21 3 -23 33 -17 17 3 56 8 85 12 48 6 52 5 52 -15 0 -11 -6 -21 -13 -21 -7 0 -50 -5 -96 -10 -46 -6 -87 -7 -92 -3 -4 4 -13 62 -19 128 -7 66 -13 124 -14 130 0 5 40 15 89 21 50 6 93 12 96 13 4 0 9 -6 12 -14z m-1601 -30 c-1 -17 -6 -60 -10 -96 -5 -37 -5 -76 0 -88 16 -44 96 -53 117 -12 6 10 15 58 21 107 11 92 20 112 40 99 9 -6 10 -28 6 -79 -15 -158 -38 -190 -130 -184 -47 4 -63 9 -79 29 -18 22 -19 34 -13 132 6 118 10 130 34 125 12 -3 16 -12 14 -33z m249 -113 l-3 -121 63 -3 c53 -3 64 -6 67 -22 4 -18 -1 -19 -84 -12 -49 4 -89 8 -90 9 -3 4 17 253 21 265 3 8 11 12 18 9 9 -3 11 -35 8 -125z m1129 108 c0 -17 -7 -20 -41 -20 l-42 0 8 -120 c6 -115 6 -120 -13 -120 -16 0 -20 9 -26 53 -3 28 -6 80 -6 114 l0 62 -47 3 c-35 2 -48 7 -48 18 0 16 53 25 163 28 46 2 52 0 52 -18z m-753 -35 c19 -19 32 -39 28 -45 -9 -15 -45 -12 -45 4 0 20 -39 46 -68 46 -13 0 -37 -13 -53 -29 -25 -26 -29 -37 -29 -85 0 -70 21 -96 80 -96 32 0 43 5 61 29 22 30 49 32 49 4 0 -8 -13 -28 -29 -44 -25 -24 -38 -29 -79 -29 -70 0 -106 31 -123 105 -11 50 -10 57 12 102 27 55 56 73 118 73 36 0 49 -6 78 -35z m466 24 c21 -9 47 -46 47 -64 0 -14 -41 -2 -50 15 -23 44 -110 32 -110 -15 0 -19 6 -26 28 -31 81 -18 109 -27 125 -41 17 -16 22 -57 11 -88 -10 -25 -58 -45 -109 -45 -38 0 -52 5 -76 29 -16 16 -29 37 -29 45 0 24 30 19 52 -9 15 -20 29 -25 62 -25 45 0 66 13 66 42 0 21 -19 32 -87 47 -59 14 -85 38 -85 78 0 58 87 93 155 62z m-203 -14 c0 -12 -16 -15 -80 -15 l-80 0 0 -40 0 -40 75 0 c68 0 75 -2 75 -20 0 -18 -7 -20 -76 -20 l-75 0 3 -42 3 -43 83 4 c77 3 82 2 82 -17 0 -18 -8 -20 -97 -24 -54 -2 -101 -2 -105 0 -5 2 -8 64 -8 138 l0 134 100 0 c82 0 100 -3 100 -15z" fill="#d9251c"/>
<path d="M3560 5650 c-16 -16 -20 -33 -20 -85 0 -57 3 -69 25 -90 13 -14 31 -25 40 -25 9 0 27 11 40 25 20 19 25 34 25 75 0 99 -58 152 -110 100z" fill="#d9251c"/>
<path d="M4366 5613 c-3 -16 -8 -38 -12 -50 -5 -20 -3 -23 21 -23 26 0 27 2 21 38 -3 20 -6 43 -6 50 0 23 -17 12 -24 -15z" fill="#d9251c"/>
<path d="M4534 5616 c-8 -45 0 -56 41 -56 36 0 65 21 65 49 0 27 -21 41 -62 41 -34 0 -38 -2 -44 -34z" fill="#d9251c"/>
<path d="M3041 5613 c-20 -4 -22 -9 -17 -35 3 -17 6 -34 6 -39 0 -12 57 -11 81 1 21 12 25 50 7 68 -12 12 -32 13 -77 5z" fill="#d9251c"/>
<path d="M2811 5564 c-38 -48 -19 -145 34 -180 25 -16 27 -16 53 3 44 33 42 134 -3 179 -31 31 -59 30 -84 -2z" fill="#d9251c"/>
<path d="M5116 5539 c-10 -51 -8 -56 27 -62 45 -7 67 8 67 43 0 32 -23 50 -63 50 -19 0 -26 -6 -31 -31z" fill="#d9251c"/>
<path d="M5312 5474 c-24 -49 -22 -64 9 -64 16 0 19 7 19 55 0 30 -1 55 -3 55 -2 0 -13 -21 -25 -46z" fill="#d9251c"/>
<path d="M2476 5458 c-12 -45 -7 -78 12 -78 39 1 44 15 19 59 -23 39 -25 41 -31 19z" fill="#d9251c"/>
<path d="M2252 5449 c-28 -8 -32 -13 -27 -32 4 -12 9 -30 11 -39 6 -22 26 -23 64 -3 32 16 40 51 18 73 -14 14 -20 14 -66 1z" fill="#d9251c"/>
<path d="M2026 5368 c-19 -26 -20 -49 -5 -102 13 -45 50 -86 79 -86 72 0 79 116 12 193 -22 24 -67 22 -86 -5z" fill="#d9251c"/>
<path d="M1816 5297 c-15 -11 -16 -17 -5 -42 7 -17 14 -31 15 -33 5 -8 74 28 74 38 0 43 -47 64 -84 37z" fill="#d9251c"/>
<path d="M1873 5195 l-32 -14 16 -40 c14 -37 17 -39 41 -30 54 21 67 52 36 83 -18 19 -20 19 -61 1z" fill="#d9251c"/>
<path d="M6114 5265 c-7 -19 -14 -36 -14 -38 0 -2 18 -12 40 -22 43 -19 63 -13 73 24 6 25 -1 35 -40 55 -42 21 -42 21 -59 -19z" fill="#d9251c"/>
<path d="M1653 5195 c3 -11 8 -37 12 -57 6 -41 10 -43 41 -25 22 12 21 13 -18 57 -25 29 -38 38 -35 25z" fill="#d9251c"/>
<path d="M4658 4265 c-16 -27 -149 -328 -146 -331 2 -2 44 17 94 42 49 24 106 49 127 55 20 5 37 13 37 17 -1 19 -107 225 -112 217z" fill="#d9251c"/>
<path d="M5830 2785 c0 -59 5 -64 55 -45 l26 10 -33 45 c-18 24 -36 44 -40 45 -5 0 -8 -25 -8 -55z" fill="#d9251c"/>
<path d="M5436 2715 c-3 -9 -6 -35 -6 -57 0 -40 0 -40 32 -34 17 3 34 8 36 11 3 2 -9 25 -25 51 -24 35 -32 42 -37 29z" fill="#d9251c"/>
<path d="M2968 2569 c-9 -52 -14 -97 -11 -101 2 -5 31 -8 63 -8 56 0 60 2 76 31 8 17 16 51 17 75 2 56 -24 84 -85 91 l-45 5 -15 -93z" fill="#d9251c"/>
</g>
</svg>